<mxfile host="app.diagrams.net" modified="2020-05-26T02:06:03.842Z" agent="5.0 (X11; Linux x86_64) AppleWebKit/537.36 (KHTML, like Gecko) Chrome/78.0.3904.97 Safari/537.36" etag="5hy83ddLbNY5MDsxzWtN" version="12.9.11" type="github">
  <diagram id="fjVPkqI6Ll-SAAi2lwUv" name="第 1 页">
    <mxGraphModel dx="1372" dy="833" grid="1" gridSize="10" guides="1" tooltips="1" connect="1" arrows="1" fold="1" page="1" pageScale="1" pageWidth="827" pageHeight="1169" math="0" shadow="0">
      <root>
        <mxCell id="0" />
        <mxCell id="1" parent="0" />
      </root>
    </mxGraphModel>
  </diagram>
</mxfile>
